<?xml version="1.0" standalone="no"?>
<!DOCTYPE svg PUBLIC "-//W3C//DTD SVG 20010904//EN"
 "http://www.w3.org/TR/2001/REC-SVG-20010904/DTD/svg10.dtd">
<svg version="1.0" xmlns="http://www.w3.org/2000/svg"
 width="1280.000000pt" height="1280.000000pt" viewBox="0 0 1280.000000 1280.000000"
 preserveAspectRatio="xMidYMid meet">
<metadata>
Created by potrace 1.15, written by Peter Selinger 2001-2017
</metadata>
<g transform="translate(0.000000,1280.000000) scale(0.100000,-0.100000)"
fill="#00bcd4" stroke="none">
<path d="M6120 12793 c-1170 -63 -2200 -387 -3158 -995 -638 -404 -1231 -956
-1700 -1583 -644 -861 -1053 -1863 -1206 -2960 -39 -280 -50 -465 -50 -855 0
-509 28 -808 120 -1270 213 -1065 703 -2066 1418 -2898 131 -153 439 -466 591
-601 946 -842 2072 -1371 3320 -1560 72 -11 159 -22 195 -26 36 -3 103 -10
150 -16 47 -5 201 -14 343 -21 361 -17 786 4 1162 58 1143 162 2220 633 3125
1364 258 209 615 557 832 810 707 828 1191 1815 1407 2870 31 154 76 428 85
520 3 30 10 100 16 155 39 389 39 841 0 1230 -6 55 -13 125 -16 155 -9 93 -54
367 -85 520 -215 1044 -679 2001 -1373 2830 -144 171 -451 487 -626 644 -446
399 -896 705 -1425 966 -294 145 -493 229 -780 326 -572 195 -1102 297 -1730
334 -155 9 -477 11 -615 3z m824 -78 c1691 -154 3188 -928 4293 -2219 53 -61
97 -117 100 -123 3 -7 -7 -27 -22 -45 -22 -26 -25 -37 -19 -62 4 -17 7 -67 8
-110 1 -51 5 -81 13 -83 6 -2 30 9 53 26 23 16 56 33 73 36 18 4 40 9 49 11
12 4 31 -13 63 -57 46 -63 46 -63 23 -72 -39 -15 -89 -1 -118 34 -39 47 -68
36 -163 -63 -61 -62 -93 -86 -138 -104 -61 -25 -99 -31 -99 -15 0 12 43 55
108 109 60 49 70 77 49 130 -28 73 -30 127 -6 170 12 21 20 46 17 54 -8 19
-176 118 -200 118 -9 0 -56 -35 -103 -77 -48 -43 -101 -82 -118 -86 -44 -12
-57 -25 -57 -58 0 -33 18 -52 74 -80 48 -25 86 -57 86 -75 0 -31 -63 -27 -168
12 -34 13 -74 24 -89 24 -15 0 -60 9 -102 21 -54 15 -95 20 -151 17 -75 -3
-77 -4 -129 -50 -29 -27 -62 -48 -73 -48 -10 0 -36 10 -58 22 -35 21 -42 21
-89 9 -31 -8 -70 -10 -99 -6 -43 6 -52 3 -78 -18 l-29 -25 -60 19 c-80 25
-106 24 -167 -8 -46 -24 -63 -27 -159 -28 l-108 -1 -41 -47 c-23 -26 -46 -47
-50 -47 -20 0 -20 41 0 80 12 23 20 51 18 63 -3 20 -10 22 -80 25 -66 2 -80 0
-97 -17 -16 -16 -19 -28 -14 -58 3 -21 10 -46 14 -55 5 -9 9 -35 9 -57 0 -52
-20 -54 -43 -6 -19 40 -38 44 -95 19 -20 -9 -64 -24 -97 -33 l-60 -16 -3 -45
c-2 -27 -9 -50 -19 -57 -25 -20 -94 -16 -128 7 -39 26 -48 25 -110 -5 -65 -32
-85 -26 -85 26 0 31 -8 47 -36 79 -20 22 -33 40 -29 40 4 0 43 -9 88 -21 110
-28 208 -22 337 21 138 47 146 56 73 88 -79 34 -153 51 -265 62 -125 12 -204
32 -348 88 -149 57 -366 92 -570 92 -116 0 -286 -34 -562 -111 l-148 -41 -56
-65 c-125 -141 -325 -289 -447 -328 -103 -34 -168 -67 -217 -111 l-39 -35 20
-56 c10 -31 19 -69 19 -85 0 -50 39 -107 93 -134 31 -16 117 -22 159 -11 16 4
34 20 43 36 25 49 95 93 95 60 0 -6 14 -45 31 -87 21 -55 29 -86 24 -108 -6
-33 13 -64 38 -64 44 2 291 60 311 74 14 9 28 27 31 41 3 14 7 36 10 50 3 13
35 54 71 90 57 57 65 70 62 98 -3 29 -8 34 -63 52 -72 25 -79 43 -34 85 36 32
68 45 141 55 31 4 62 18 92 41 54 41 68 64 76 124 l5 45 80 7 c99 9 175 1 175
-18 0 -19 -76 -73 -192 -134 -129 -70 -135 -82 -82 -186 54 -106 64 -111 150
-79 57 22 90 26 207 31 l138 5 30 -32 c31 -33 37 -57 17 -64 -7 -2 -107 -8
-222 -14 -115 -5 -213 -14 -218 -19 -6 -6 7 -19 35 -35 24 -14 49 -33 56 -41
11 -13 9 -17 -12 -27 -21 -9 -39 -8 -91 5 -70 17 -98 13 -128 -21 -30 -33 -58
-107 -58 -155 0 -56 -1 -57 -119 -33 l-77 16 -108 -36 c-125 -40 -133 -41
-159 -17 -15 13 -37 17 -109 17 -88 0 -92 1 -112 28 -16 21 -20 43 -21 95 l0
67 -57 -1 c-68 -1 -104 -21 -124 -69 -23 -56 -18 -89 21 -135 20 -24 34 -45
31 -47 -2 -2 -33 1 -68 7 -103 18 -136 5 -254 -100 -28 -26 -54 -39 -85 -44
-74 -11 -109 -26 -109 -45 0 -33 -21 -80 -38 -85 -10 -3 -68 -15 -131 -26 -62
-11 -139 -32 -172 -45 -32 -14 -71 -25 -87 -25 -33 0 -68 -22 -58 -38 3 -6 32
-16 63 -22 74 -16 138 -44 168 -74 20 -20 25 -35 25 -74 0 -69 -27 -141 -57
-153 -14 -5 -101 -4 -226 3 -111 6 -219 8 -239 4 -67 -12 -79 -68 -52 -236 5
-29 0 -42 -25 -74 -17 -21 -31 -47 -31 -56 0 -16 72 -116 95 -132 5 -4 33 -7
61 -7 72 1 85 -5 117 -56 34 -53 50 -56 67 -15 18 43 36 54 85 51 24 -1 71 3
105 10 50 10 73 21 109 53 26 23 58 48 71 58 22 14 23 19 13 37 -7 11 -13 29
-13 40 0 23 103 119 133 125 104 19 100 17 119 80 10 33 23 65 29 73 15 17 52
16 113 -2 76 -23 105 -19 180 25 103 60 168 52 200 -25 23 -53 114 -118 220
-154 51 -18 106 -40 123 -51 27 -16 66 -80 87 -143 4 -12 14 -17 28 -15 21 3
23 8 23 73 l0 70 45 3 c25 2 49 7 53 11 9 9 -80 68 -191 126 -47 24 -86 54
-109 82 -20 25 -56 58 -80 74 -49 34 -64 72 -39 97 14 15 19 14 52 -2 20 -9
57 -34 82 -54 25 -20 77 -59 117 -87 168 -117 204 -147 226 -194 12 -25 35
-64 53 -85 17 -22 56 -87 86 -145 49 -95 58 -106 81 -104 35 2 166 88 174 114
9 26 -15 62 -66 99 l-40 29 53 27 c29 15 64 35 77 45 13 11 36 19 52 19 35 0
40 -16 48 -135 l6 -90 74 -37 c40 -20 81 -43 90 -52 29 -26 101 -39 141 -26
30 10 48 9 100 -4 68 -18 117 -13 222 20 65 21 72 15 64 -66 -9 -96 -40 -189
-79 -235 -18 -22 -40 -52 -49 -67 -14 -22 -26 -27 -70 -30 -44 -3 -58 0 -81
19 -34 27 -28 27 -116 8 -102 -21 -131 -36 -186 -94 -26 -28 -57 -51 -67 -51
-32 0 -16 21 60 83 40 32 72 65 72 73 0 25 -47 34 -178 34 -117 1 -133 3 -202
30 -41 17 -85 30 -98 30 -40 0 -86 -26 -154 -88 -36 -33 -75 -63 -85 -66 -31
-10 -159 20 -210 49 -85 50 -117 64 -168 75 -27 7 -72 23 -100 37 -27 14 -71
37 -97 50 -59 29 -79 60 -52 80 10 7 28 13 41 13 33 0 37 20 19 82 -18 64 -67
116 -117 124 -20 4 -58 -1 -89 -10 -40 -12 -98 -16 -229 -16 l-176 0 -110 -39
c-60 -22 -157 -57 -214 -80 -102 -39 -107 -40 -191 -34 -97 6 -120 -1 -219
-76 -30 -23 -60 -41 -66 -41 -18 0 -71 -61 -95 -110 -14 -26 -26 -75 -30 -117
-4 -40 -13 -79 -19 -87 -7 -8 -55 -38 -108 -67 -140 -78 -172 -110 -239 -242
-31 -61 -70 -131 -86 -154 -43 -64 -44 -89 -9 -191 21 -61 31 -109 31 -149 0
-53 -5 -67 -49 -138 -27 -44 -56 -88 -65 -97 -21 -23 -20 -27 7 -56 19 -21 22
-33 20 -95 -3 -90 7 -105 95 -151 95 -51 136 -88 173 -157 34 -64 122 -153
288 -292 106 -89 134 -97 156 -43 22 52 59 60 241 53 180 -8 213 -1 364 72
172 85 245 70 307 -62 48 -99 102 -109 209 -36 l40 28 57 -37 c31 -20 60 -47
66 -58 9 -22 6 -29 -42 -96 -10 -15 -21 -57 -27 -104 -5 -44 -16 -96 -24 -116
-27 -63 -22 -81 37 -124 39 -29 76 -75 149 -184 l97 -145 1 -93 c0 -89 2 -96
40 -168 22 -42 40 -82 40 -89 0 -7 -24 -33 -53 -58 -149 -127 -156 -302 -21
-538 131 -230 137 -246 144 -384 6 -117 8 -125 40 -176 19 -29 56 -77 82 -108
53 -62 89 -157 107 -284 11 -79 28 -110 73 -133 66 -34 87 -35 146 -7 49 23
71 27 207 32 150 6 152 7 229 44 81 41 112 68 319 286 131 138 142 156 127
213 -17 61 -8 81 52 109 28 13 71 36 95 51 39 25 43 31 43 67 0 22 -11 75 -25
118 -34 108 -33 122 23 195 43 57 58 68 155 116 98 49 111 58 142 106 19 29
43 81 55 116 18 55 20 71 11 148 -5 51 -5 95 0 110 18 48 10 81 -29 125 -47
51 -50 59 -68 167 -27 160 -23 194 25 239 21 20 76 83 122 141 132 165 244
274 304 293 74 25 142 88 176 165 16 35 64 114 106 175 62 89 83 131 110 211
19 57 32 116 31 136 -3 32 -6 35 -39 38 -49 4 -140 -20 -276 -74 -132 -52
-210 -65 -248 -40 -22 14 -25 24 -25 70 0 69 -38 129 -155 241 -74 72 -88 91
-134 189 -28 60 -70 134 -92 164 -23 30 -56 91 -74 136 -18 44 -78 172 -132
283 -74 152 -96 204 -85 208 7 3 37 8 66 11 l53 6 51 -102 c29 -56 52 -110 52
-120 0 -10 20 -35 44 -55 34 -28 45 -44 50 -77 4 -23 20 -73 36 -112 25 -60
42 -82 110 -144 91 -84 127 -148 155 -277 29 -135 54 -211 75 -230 16 -15 30
-17 84 -12 75 7 130 26 282 95 61 28 140 59 175 68 35 9 96 31 134 49 39 19
90 40 115 47 50 14 180 107 230 164 17 20 57 75 89 123 31 48 67 101 80 118
22 29 22 32 7 60 -19 37 -113 102 -181 124 -38 13 -54 25 -67 49 -29 56 -37
58 -66 24 -35 -41 -190 -136 -216 -132 -14 2 -22 14 -27 38 -6 25 -24 49 -68
88 -37 33 -61 62 -61 74 0 12 -32 54 -75 99 -90 94 -96 120 -40 176 50 50 72
43 113 -37 42 -81 64 -105 124 -136 26 -13 75 -42 109 -64 34 -22 70 -40 80
-40 9 0 45 13 80 30 72 34 77 32 134 -39 22 -28 60 -60 85 -73 42 -21 58 -22
242 -23 l197 0 28 28 c48 45 82 38 133 -28 34 -44 51 -57 84 -65 81 -20 90
-29 99 -99 9 -72 28 -115 58 -132 29 -15 59 -5 113 36 26 19 48 35 51 35 2 0
3 -60 2 -132 -2 -122 0 -141 26 -223 33 -101 142 -327 193 -396 56 -77 94
-158 94 -200 0 -43 21 -102 40 -114 18 -11 46 21 105 119 67 114 106 242 112
376 2 52 9 107 15 122 10 26 47 55 119 91 35 18 234 209 294 282 39 47 90 64
194 65 82 0 85 1 123 36 22 19 47 34 56 32 8 -2 29 -28 44 -59 16 -31 54 -84
84 -117 l54 -60 0 -114 c0 -355 -49 -811 -130 -1208 -355 -1747 -1430 -3257
-2980 -4183 -198 -118 -605 -322 -820 -410 -919 -379 -1952 -537 -2950 -452
-1597 138 -3070 866 -4153 2053 l-76 84 50 69 c54 76 60 106 28 135 -12 10
-35 38 -51 62 -25 36 -30 55 -34 120 -4 80 1 74 26 -33 6 -27 20 -60 31 -72
22 -22 87 -43 136 -43 40 0 106 45 186 127 55 56 70 79 82 122 7 29 21 64 30
78 14 21 22 24 51 18 31 -5 36 -3 52 26 9 18 41 59 69 92 58 65 63 87 42 173
-8 31 -9 52 -2 67 12 26 176 120 269 154 36 12 90 26 122 29 107 11 119 18
159 97 19 40 54 97 76 129 35 50 41 65 42 115 1 32 12 88 24 126 19 55 21 73
12 99 -14 38 -14 103 -2 127 6 10 59 67 118 127 107 107 110 111 151 215 47
119 51 153 23 207 -31 61 -72 91 -156 117 -57 18 -88 34 -122 65 -70 66 -117
82 -210 74 l-78 -6 -95 53 c-147 82 -165 90 -227 99 l-58 9 -37 -40 c-20 -22
-40 -54 -43 -70 -8 -37 -19 -42 -70 -31 l-39 8 36 22 c74 46 110 116 76 150
-24 24 -78 14 -119 -22 -54 -49 -140 -63 -147 -23 -2 10 5 20 20 26 13 5 49
19 81 31 79 31 107 55 107 91 0 34 -39 79 -67 79 -12 0 -29 20 -48 56 -38 70
-118 147 -187 179 -49 23 -60 25 -149 19 l-96 -7 -19 28 c-10 15 -46 57 -78
91 -57 61 -61 64 -107 64 -26 0 -51 5 -54 10 -3 6 -17 10 -31 10 -29 0 -30 13
-6 48 33 48 56 142 34 142 -4 0 -18 -18 -32 -40 -14 -22 -31 -40 -39 -40 -7 0
-28 13 -47 30 -41 35 -93 47 -144 31 -31 -9 -41 -18 -50 -46 -16 -50 -26 -51
-54 -6 -32 49 -79 63 -132 37 -50 -24 -61 -20 -84 24 -12 23 -27 43 -35 47
-25 9 -63 -6 -99 -38 -35 -30 -49 -60 -61 -131 -3 -21 -10 -38 -15 -38 -12 0
-30 65 -30 108 0 18 11 55 25 83 45 89 14 91 -133 12 -75 -42 -115 -71 -141
-103 -77 -95 -96 -110 -140 -110 -29 0 -41 4 -41 14 0 16 -59 66 -77 66 -12 0
-20 63 -33 275 -11 166 -13 585 -4 585 3 0 48 -25 100 -55 124 -73 218 -86
199 -27 -10 33 -59 62 -122 72 -35 6 -79 23 -113 44 -54 34 -55 35 -58 86 -7
112 65 724 92 779 10 22 47 50 138 106 42 26 45 45 14 92 -17 24 -26 51 -26
75 0 42 6 46 36 23 25 -19 37 -19 65 4 19 15 24 29 24 68 0 47 1 48 35 53 33
5 35 7 35 43 0 23 6 41 15 47 8 5 52 9 96 9 85 0 154 19 154 43 0 7 -9 24 -20
38 -11 14 -20 37 -20 51 0 35 57 86 105 94 19 3 51 7 70 10 19 3 46 17 60 30
37 38 53 32 61 -22 3 -27 11 -56 16 -66 14 -27 65 -21 118 13 35 23 79 37 171
56 169 34 189 41 189 66 0 27 -50 118 -65 118 -6 0 -22 -12 -36 -26 -35 -38
-56 -47 -79 -34 -14 8 -20 21 -20 46 0 44 -20 52 -59 25 -38 -27 -57 -26 -76
3 -15 23 -15 27 0 50 20 30 13 58 -22 86 -33 26 -79 25 -140 -1 -48 -22 -205
-70 -210 -65 -3 3 60 48 179 129 l87 59 57 -17 c40 -12 60 -13 67 -6 20 20 27
12 27 -30 0 -59 15 -82 48 -74 48 12 93 37 88 50 -3 8 10 15 37 19 23 4 55 15
72 25 16 11 46 22 65 26 19 4 54 25 77 46 47 43 47 43 74 29 30 -16 23 -43
-21 -83 -24 -21 -51 -61 -66 -94 -14 -32 -32 -65 -40 -74 -13 -14 -13 -18 1
-29 11 -9 44 -11 122 -8 96 4 108 3 126 -15 18 -18 21 -19 54 -3 42 20 70 20
107 1 24 -13 31 -13 37 -3 12 19 3 42 -48 120 l-44 69 -60 -2 c-43 -2 -64 3
-77 15 -10 9 -29 16 -41 16 l-23 0 23 38 c13 20 40 64 61 97 21 33 37 66 36
74 -2 9 -30 23 -65 33 -53 16 -66 25 -90 60 -41 61 -106 108 -151 108 -58 0
-82 10 -97 40 -14 27 -216 257 -257 293 -11 9 -25 17 -30 17 -6 0 -43 -34 -82
-75 -61 -63 -77 -75 -104 -75 -40 0 -91 21 -114 47 -17 18 -15 23 36 113 52
93 53 95 87 92 27 -2 36 1 44 20 14 33 57 34 115 4 27 -14 52 -26 55 -26 7 0
-1 89 -11 113 -3 9 -29 31 -57 48 -29 18 -53 34 -55 35 -2 1 4 16 13 33 19 39
38 39 95 1 25 -16 58 -30 73 -30 42 0 119 43 162 91 l39 43 -39 9 c-101 20
-162 40 -182 59 l-22 20 66 92 c84 117 179 239 266 344 l68 82 31 -17 c17 -10
36 -31 43 -48 10 -24 45 -209 45 -239 0 -21 42 1 81 44 41 45 50 50 75 44 51
-12 73 -28 115 -84 33 -45 40 -60 35 -84 -4 -17 -10 -34 -15 -39 -13 -13 -67
16 -61 34 2 8 4 34 5 59 l0 45 -49 3 c-27 2 -60 1 -73 -3 -48 -12 -81 -108
-51 -147 7 -9 33 -19 57 -22 24 -3 46 -8 49 -10 2 -3 -10 -24 -27 -48 -17 -23
-31 -46 -31 -51 0 -4 15 -41 33 -80 34 -74 47 -84 131 -111 18 -6 18 -7 1 -20
-18 -13 -17 -15 5 -52 36 -60 49 -72 113 -106 33 -18 81 -51 107 -75 l48 -43
53 19 c53 21 69 20 69 -3 0 -27 41 -66 68 -66 76 0 142 72 142 155 0 60 15 79
53 70 14 -4 35 -2 46 5 19 10 21 18 19 72 l-3 62 60 21 c33 12 75 29 94 39 27
15 56 18 145 17 l111 -1 23 33 c53 80 66 86 213 103 152 17 184 24 285 64 47
19 89 29 124 28 28 0 54 3 58 6 12 12 -73 87 -110 97 -40 10 -45 22 -26 64 20
45 108 22 108 -29 0 -13 9 -35 21 -50 37 -47 139 -27 139 28 0 13 -14 53 -30
88 -17 36 -28 72 -24 81 10 27 69 40 152 33 42 -4 83 -3 90 2 7 5 14 40 17 90
5 88 13 111 54 155 22 24 23 29 11 37 -8 5 -27 10 -41 10 -29 0 -49 32 -49 81
0 24 13 43 63 91 99 96 205 177 271 207 69 32 104 65 108 101 2 20 -4 29 -34
43 -44 22 -131 32 -182 23 -22 -4 -60 -27 -98 -60 -165 -139 -218 -119 -357
135 -11 19 -25 64 -31 99 -19 102 -10 97 -162 98 -120 1 -138 -1 -197 -25 -48
-19 -87 -27 -141 -29 -49 -1 -89 -8 -115 -20 -33 -15 -64 -19 -170 -19 -71 0
-138 5 -147 10 -12 7 9 10 75 11 93 1 434 57 451 74 15 15 -27 28 -198 59
-194 36 -219 37 -373 15 -96 -14 -140 -14 -122 -1 43 32 247 164 354 229 686
415 1447 698 2229 828 200 33 493 67 691 80 194 12 705 4 909 -15z m4491
-2474 c-11 -10 -35 11 -35 31 l0 23 20 -25 c10 -14 17 -26 15 -29z m-3208
-702 c67 -25 96 -83 47 -95 -52 -13 -144 29 -144 66 0 37 42 50 97 29z m1524
-1030 c27 -12 49 -25 49 -28 0 -4 16 -26 35 -48 41 -48 44 -69 13 -79 -42 -13
-123 -8 -151 11 -52 34 -127 -13 -127 -80 0 -32 2 -35 29 -35 30 0 72 -39 95
-89 6 -15 31 -33 63 -47 29 -13 53 -28 53 -32 0 -5 -9 -17 -21 -28 -38 -34
-41 -50 -16 -81 32 -38 42 -68 71 -196 6 -24 3 -29 -26 -41 -73 -30 -136 -29
-253 5 -60 17 -118 39 -129 49 -21 21 -36 88 -25 117 5 14 20 22 46 26 50 8
125 71 121 101 -2 17 -19 26 -82 47 -90 29 -117 52 -190 158 -52 77 -57 109
-24 157 37 53 70 67 129 55 78 -17 93 -14 161 33 73 51 107 56 179 25z m-1525
-66 c10 -10 37 -49 62 -86 37 -58 47 -67 65 -61 47 15 112 64 132 101 12 21
33 44 46 50 27 14 109 17 109 5 0 -13 -32 -39 -58 -47 -38 -11 -21 -37 38 -61
74 -30 274 -163 294 -196 20 -32 21 -62 2 -77 -19 -16 -180 -34 -246 -28 -32
3 -84 19 -125 38 -104 49 -255 54 -303 8 -33 -30 -67 -39 -153 -39 -60 0 -89
-5 -119 -20 -22 -11 -42 -20 -45 -20 -3 0 -2 25 1 55 5 44 3 59 -10 74 -23 25
-10 55 49 111 26 25 69 77 96 117 27 40 57 77 66 82 28 16 80 13 99 -6z
m-8048 -2927 c21 -31 26 -50 26 -100 0 -67 -28 -200 -37 -176 -8 21 -57 343
-57 372 1 19 4 16 21 -17 12 -22 33 -57 47 -79z m8188 -461 c17 -42 -38 -154
-87 -181 -31 -17 -35 -17 -53 2 -29 29 -17 165 17 186 7 4 36 8 65 8 38 0 54
-4 58 -15z m-7646 -1380 c12 -24 20 -60 19 -86 l-1 -44 -54 110 c-29 61 -53
114 -54 119 0 20 71 -59 90 -99z"/>
<path d="M10776 10673 c-38 -28 -40 -28 -205 -28 -148 -1 -321 -19 -466 -50
-11 -2 -43 -24 -71 -47 -32 -28 -103 -67 -203 -112 -109 -50 -158 -77 -172
-98 -34 -47 -23 -60 66 -85 44 -12 107 -33 140 -47 69 -29 123 -33 165 -11 53
27 49 99 -6 124 -52 23 -20 65 99 129 50 28 115 57 143 65 69 20 301 31 388
18 53 -8 78 -7 107 3 48 17 133 80 150 113 12 22 11 27 -6 39 -31 23 -86 17
-129 -13z"/>
<path d="M4071 9876 l-24 -25 23 -43 c40 -78 55 -88 133 -88 66 0 70 -1 100
-35 24 -28 38 -35 66 -35 48 0 154 33 186 58 14 11 49 23 78 27 39 5 60 15 85
38 17 17 32 39 32 48 0 23 -39 46 -104 63 -47 13 -63 13 -108 1 -29 -7 -94
-18 -145 -24 -87 -11 -94 -10 -135 11 -26 14 -66 24 -103 26 -54 4 -62 1 -84
-22z"/>
<path d="M5501 9316 c-38 -32 -46 -34 -89 -29 -96 11 -97 -56 -2 -160 55 -60
67 -68 143 -92 85 -29 112 -44 89 -52 -29 -11 -129 -93 -142 -117 -12 -23 -11
-28 5 -46 9 -10 32 -24 51 -30 30 -10 33 -14 27 -41 -4 -24 -2 -29 13 -29 11
0 30 9 44 20 31 24 50 24 160 3 101 -19 126 -15 174 31 50 47 49 82 -5 141
-22 24 -59 55 -82 69 -23 13 -53 39 -67 58 -13 18 -41 52 -62 74 -34 37 -37
45 -28 68 16 42 12 71 -12 93 -26 24 -132 73 -158 73 -10 0 -37 -16 -59 -34z"/>
<path d="M5295 9101 c-11 -5 -31 -20 -44 -34 -13 -15 -40 -28 -62 -32 -51 -9
-63 -31 -45 -83 13 -37 13 -42 -5 -63 -23 -26 -23 -23 -4 -58 16 -32 33 -41
79 -41 37 0 183 68 209 97 38 43 30 148 -15 190 -26 24 -84 36 -113 24z"/>
<path d="M6480 8030 c-12 -12 -20 -33 -20 -55 0 -66 79 -86 116 -30 14 21 14
30 4 55 -21 51 -66 64 -100 30z"/>
<path d="M6065 7970 c-23 -25 -8 -46 25 -35 14 5 20 13 18 28 -4 28 -21 31
-43 7z"/>
<path d="M6803 7854 c-27 -12 -10 -33 68 -83 73 -48 84 -52 113 -44 24 7 32
15 34 37 4 34 -28 73 -67 80 -50 9 -136 15 -148 10z"/>
<path d="M136 6854 c-21 -20 -20 -21 8 -39 18 -12 30 -13 50 -6 31 12 34 36 7
51 -27 14 -47 13 -65 -6z"/>
<path d="M613 6499 c-43 -8 -113 -50 -146 -87 -18 -20 -18 -20 50 -26 44 -4
85 -16 116 -32 47 -25 49 -26 97 -10 61 20 69 20 92 -1 24 -21 33 -11 33 37 0
52 -42 95 -109 115 -54 16 -70 17 -133 4z"/>
<path d="M992 6408 c-15 -15 -15 -61 0 -76 29 -29 78 -7 78 34 0 43 -50 70
-78 42z"/>
<path d="M171 6336 c-17 -20 -10 -67 11 -79 26 -17 68 7 68 37 0 46 -53 74
-79 42z"/>
<path d="M11734 5708 c-22 -42 -29 -136 -15 -181 20 -59 81 -63 114 -7 26 44
24 76 -11 153 -36 78 -61 88 -88 35z"/>
<path d="M9433 4118 c-11 -13 -31 -44 -46 -69 -32 -56 -148 -167 -182 -174
-14 -3 -37 -7 -51 -11 -15 -3 -40 -18 -56 -35 -34 -33 -34 -46 -4 -156 18 -67
12 -118 -18 -158 -21 -27 -19 -66 4 -154 11 -41 17 -83 14 -93 -3 -10 -3 -32
1 -48 8 -39 49 -60 112 -60 91 0 136 51 183 210 13 41 35 102 50 135 15 33 37
94 49 135 12 41 34 104 48 140 30 76 41 203 24 266 -24 87 -83 121 -128 72z"/>
</g>
</svg>
